<mxfile host="65bd71144e">
    <diagram id="LZz2wOFwMXSamugeINun" name="Page-1">
        <mxGraphModel dx="310" dy="384" grid="0" gridSize="10" guides="1" tooltips="1" connect="1" arrows="1" fold="1" page="0" pageScale="1" pageWidth="850" pageHeight="1100" background="#ffffff" math="0" shadow="0">
            <root>
                <mxCell id="0"/>
                <mxCell id="1" parent="0"/>
                <mxCell id="10" value="" style="rounded=0;whiteSpace=wrap;html=1;shadow=0;glass=0;labelBackgroundColor=#FFFFFF;sketch=0;strokeColor=#000000;strokeWidth=2;fontColor=#000000;fillColor=none;" parent="1" vertex="1">
                    <mxGeometry x="416" y="359" width="168" height="75" as="geometry"/>
                </mxCell>
                <mxCell id="11" value="saveTaskButton" style="text;html=1;align=center;verticalAlign=middle;resizable=0;points=[];autosize=1;strokeColor=none;fillColor=none;fontColor=#000000;fontFamily=Times New Roman;fontSize=18;" parent="1" vertex="1">
                    <mxGeometry x="435.5" y="359" width="133" height="34" as="geometry"/>
                </mxCell>
                <mxCell id="12" value="" style="endArrow=none;html=1;fontFamily=Times New Roman;fontSize=14;fontColor=#000000;strokeWidth=2;strokeColor=#000000;entryX=1;entryY=0.25;entryDx=0;entryDy=0;exitX=0;exitY=0.25;exitDx=0;exitDy=0;" parent="1" edge="1">
                    <mxGeometry width="50" height="50" relative="1" as="geometry">
                        <mxPoint x="416" y="386.75" as="sourcePoint"/>
                        <mxPoint x="584" y="386.75" as="targetPoint"/>
                    </mxGeometry>
                </mxCell>
                <mxCell id="13" value="clickListener" style="text;html=1;align=center;verticalAlign=middle;resizable=0;points=[];autosize=1;strokeColor=none;fillColor=none;fontSize=18;fontFamily=Times New Roman;fontColor=#000000;" parent="1" vertex="1">
                    <mxGeometry x="416" y="397" width="112" height="34" as="geometry"/>
                </mxCell>
                <mxCell id="15" value="" style="rounded=0;whiteSpace=wrap;html=1;shadow=0;glass=0;labelBackgroundColor=#FFFFFF;sketch=0;strokeColor=#000000;strokeWidth=2;fontColor=#000000;fillColor=none;" parent="1" vertex="1">
                    <mxGeometry x="599" y="359" width="187" height="169" as="geometry"/>
                </mxCell>
                <mxCell id="17" value="" style="endArrow=none;html=1;fontFamily=Times New Roman;fontSize=14;fontColor=#000000;strokeWidth=2;strokeColor=#000000;entryX=1.004;entryY=0.162;entryDx=0;entryDy=0;exitX=0;exitY=0.25;exitDx=0;exitDy=0;entryPerimeter=0;" parent="1" target="15" edge="1">
                    <mxGeometry width="50" height="50" relative="1" as="geometry">
                        <mxPoint x="600" y="386.7500000000001" as="sourcePoint"/>
                        <mxPoint x="768" y="386.7500000000001" as="targetPoint"/>
                    </mxGeometry>
                </mxCell>
                <mxCell id="18" value="topic:varchar(45)" style="text;html=1;align=center;verticalAlign=middle;resizable=0;points=[];autosize=1;strokeColor=none;fillColor=none;fontSize=18;fontFamily=Times New Roman;fontColor=#000000;" parent="1" vertex="1">
                    <mxGeometry x="611.5" y="397" width="143" height="34" as="geometry"/>
                </mxCell>
                <mxCell id="19" value="FormInputs" style="text;html=1;align=center;verticalAlign=middle;resizable=0;points=[];autosize=1;strokeColor=none;fillColor=none;fontSize=18;fontFamily=Times New Roman;fontColor=#000000;" parent="1" vertex="1">
                    <mxGeometry x="646.5" y="359" width="102" height="34" as="geometry"/>
                </mxCell>
                <mxCell id="20" value="deadline:datetime" style="text;html=1;align=center;verticalAlign=middle;resizable=0;points=[];autosize=1;strokeColor=none;fillColor=none;fontSize=18;fontFamily=Times New Roman;fontColor=#000000;imageAspect=0;portConstraintRotation=1;container=1;" parent="1" vertex="1">
                    <mxGeometry x="610.5" y="417" width="146" height="34" as="geometry"/>
                </mxCell>
                <mxCell id="21" value="executor:varchar(45)" style="text;html=1;align=center;verticalAlign=middle;resizable=0;points=[];autosize=1;strokeColor=none;fillColor=none;fontSize=18;fontFamily=Times New Roman;fontColor=#000000;" parent="1" vertex="1">
                    <mxGeometry x="610.5" y="437" width="169" height="34" as="geometry"/>
                </mxCell>
                <mxCell id="22" value="comment:varchar(45)" style="text;html=1;align=center;verticalAlign=middle;resizable=0;points=[];autosize=1;strokeColor=none;fillColor=none;fontSize=18;fontFamily=Times New Roman;fontColor=#000000;" parent="1" vertex="1">
                    <mxGeometry x="610.5" y="457" width="174" height="34" as="geometry"/>
                </mxCell>
                <mxCell id="23" value="status:int" style="text;html=1;align=center;verticalAlign=middle;resizable=0;points=[];autosize=1;strokeColor=none;fillColor=none;fontSize=18;fontFamily=Times New Roman;fontColor=#000000;" parent="1" vertex="1">
                    <mxGeometry x="612.5" y="477" width="83" height="34" as="geometry"/>
                </mxCell>
                <mxCell id="24" value="" style="rounded=0;whiteSpace=wrap;html=1;shadow=0;glass=0;labelBackgroundColor=#FFFFFF;sketch=0;strokeColor=#000000;strokeWidth=2;fontColor=#000000;fillColor=none;" parent="1" vertex="1">
                    <mxGeometry x="802" y="359" width="168" height="95" as="geometry"/>
                </mxCell>
                <mxCell id="25" value="" style="endArrow=none;html=1;fontFamily=Times New Roman;fontSize=14;fontColor=#000000;strokeWidth=2;strokeColor=#000000;entryX=1;entryY=0.25;entryDx=0;entryDy=0;exitX=0;exitY=0.25;exitDx=0;exitDy=0;" parent="1" edge="1">
                    <mxGeometry width="50" height="50" relative="1" as="geometry">
                        <mxPoint x="801.9999999999998" y="386.75" as="sourcePoint"/>
                        <mxPoint x="970" y="386.75" as="targetPoint"/>
                    </mxGeometry>
                </mxCell>
                <mxCell id="26" value="topicElement" style="text;html=1;align=center;verticalAlign=middle;resizable=0;points=[];autosize=1;strokeColor=none;fillColor=none;fontSize=18;fontFamily=Times New Roman;fontColor=#000000;" parent="1" vertex="1">
                    <mxGeometry x="817" y="397" width="114" height="34" as="geometry"/>
                </mxCell>
                <mxCell id="27" value="TaskElement" style="text;html=1;align=center;verticalAlign=middle;resizable=0;points=[];autosize=1;strokeColor=none;fillColor=none;fontSize=18;fontFamily=Times New Roman;fontColor=#000000;" parent="1" vertex="1">
                    <mxGeometry x="833.5" y="359" width="112" height="34" as="geometry"/>
                </mxCell>
                <mxCell id="28" value="taskElement" style="text;html=1;align=center;verticalAlign=middle;resizable=0;points=[];autosize=1;strokeColor=none;fillColor=none;fontSize=18;fontFamily=Times New Roman;fontColor=#000000;" parent="1" vertex="1">
                    <mxGeometry x="817" y="417" width="107" height="34" as="geometry"/>
                </mxCell>
                <mxCell id="32" value="" style="rounded=0;whiteSpace=wrap;html=1;shadow=0;glass=0;labelBackgroundColor=#FFFFFF;sketch=0;strokeColor=#000000;strokeWidth=2;fontColor=#000000;fillColor=none;" parent="1" vertex="1">
                    <mxGeometry x="804" y="537" width="168" height="111" as="geometry"/>
                </mxCell>
                <mxCell id="33" value="" style="endArrow=none;html=1;fontFamily=Times New Roman;fontSize=14;fontColor=#000000;strokeWidth=2;strokeColor=#000000;entryX=1;entryY=0.25;entryDx=0;entryDy=0;exitX=0;exitY=0.25;exitDx=0;exitDy=0;" parent="1" edge="1">
                    <mxGeometry width="50" height="50" relative="1" as="geometry">
                        <mxPoint x="804" y="564.7500000000001" as="sourcePoint"/>
                        <mxPoint x="972" y="564.7500000000001" as="targetPoint"/>
                    </mxGeometry>
                </mxCell>
                <mxCell id="34" value="targetContainer" style="text;html=1;align=center;verticalAlign=middle;resizable=0;points=[];autosize=1;strokeColor=none;fillColor=none;fontSize=18;fontFamily=Times New Roman;fontColor=#000000;" parent="1" vertex="1">
                    <mxGeometry x="814" y="575" width="130" height="34" as="geometry"/>
                </mxCell>
                <mxCell id="35" value="TaskListManager" style="text;html=1;align=center;verticalAlign=middle;resizable=0;points=[];autosize=1;strokeColor=none;fillColor=none;fontSize=18;fontFamily=Times New Roman;fontColor=#000000;" parent="1" vertex="1">
                    <mxGeometry x="819.5" y="537" width="144" height="34" as="geometry"/>
                </mxCell>
                <mxCell id="36" value="taskList" style="text;html=1;align=center;verticalAlign=middle;resizable=0;points=[];autosize=1;strokeColor=none;fillColor=none;fontSize=18;fontFamily=Times New Roman;fontColor=#000000;" parent="1" vertex="1">
                    <mxGeometry x="814" y="595" width="75" height="34" as="geometry"/>
                </mxCell>
                <mxCell id="37" value="taskListItem" style="text;html=1;align=center;verticalAlign=middle;resizable=0;points=[];autosize=1;strokeColor=none;fillColor=none;fontSize=18;fontFamily=Times New Roman;fontColor=#000000;" parent="1" vertex="1">
                    <mxGeometry x="815" y="615" width="108" height="34" as="geometry"/>
                </mxCell>
                <mxCell id="40" value="" style="rounded=0;whiteSpace=wrap;html=1;shadow=0;glass=0;labelBackgroundColor=#FFFFFF;sketch=0;strokeColor=#000000;strokeWidth=2;fontColor=#000000;fillColor=none;" parent="1" vertex="1">
                    <mxGeometry x="599.5" y="537" width="189" height="169" as="geometry"/>
                </mxCell>
                <mxCell id="42" value="topic:varchar(45)" style="text;html=1;align=center;verticalAlign=middle;resizable=0;points=[];autosize=1;strokeColor=none;fillColor=none;fontSize=18;fontFamily=Times New Roman;fontColor=#000000;" parent="1" vertex="1">
                    <mxGeometry x="614" y="574" width="143" height="34" as="geometry"/>
                </mxCell>
                <mxCell id="43" value="TaskData" style="text;html=1;align=center;verticalAlign=middle;resizable=0;points=[];autosize=1;strokeColor=none;fillColor=none;fontSize=18;fontFamily=Times New Roman;fontColor=#000000;" parent="1" vertex="1">
                    <mxGeometry x="652" y="536" width="86" height="34" as="geometry"/>
                </mxCell>
                <mxCell id="44" value="deadline:datetime" style="text;html=1;align=center;verticalAlign=middle;resizable=0;points=[];autosize=1;strokeColor=none;fillColor=none;fontSize=18;fontFamily=Times New Roman;fontColor=#000000;" parent="1" vertex="1">
                    <mxGeometry x="612.5" y="593.5" width="146" height="34" as="geometry"/>
                </mxCell>
                <mxCell id="45" value="executor:varchar(45)" style="text;html=1;align=center;verticalAlign=middle;resizable=0;points=[];autosize=1;strokeColor=none;fillColor=none;fontSize=18;fontFamily=Times New Roman;fontColor=#000000;" parent="1" vertex="1">
                    <mxGeometry x="613" y="615" width="169" height="34" as="geometry"/>
                </mxCell>
                <mxCell id="46" value="comment:varchar(45)" style="text;html=1;align=center;verticalAlign=middle;resizable=0;points=[];autosize=1;strokeColor=none;fillColor=none;fontSize=18;fontFamily=Times New Roman;fontColor=#000000;" parent="1" vertex="1">
                    <mxGeometry x="614" y="634" width="174" height="34" as="geometry"/>
                </mxCell>
                <mxCell id="47" value="status:int" style="text;html=1;align=center;verticalAlign=middle;resizable=0;points=[];autosize=1;strokeColor=none;fillColor=none;fontSize=18;fontFamily=Times New Roman;fontColor=#000000;" parent="1" vertex="1">
                    <mxGeometry x="614" y="653" width="83" height="34" as="geometry"/>
                </mxCell>
                <mxCell id="49" value="" style="endArrow=none;html=1;fontFamily=Times New Roman;fontSize=14;fontColor=#000000;strokeWidth=2;strokeColor=#000000;exitX=0;exitY=0.25;exitDx=0;exitDy=0;entryX=0.998;entryY=0.17;entryDx=0;entryDy=0;entryPerimeter=0;" parent="1" target="40" edge="1">
                    <mxGeometry width="50" height="50" relative="1" as="geometry">
                        <mxPoint x="599.5" y="565.75" as="sourcePoint"/>
                        <mxPoint x="786.5" y="567" as="targetPoint"/>
                    </mxGeometry>
                </mxCell>
                <mxCell id="51" value="" style="endArrow=openThin;html=1;strokeColor=#000000;strokeWidth=1;fontFamily=Arial;fontSize=14;fontColor=#000000;endFill=0;" parent="1" edge="1">
                    <mxGeometry relative="1" as="geometry">
                        <mxPoint x="584" y="392" as="sourcePoint"/>
                        <mxPoint x="599" y="392" as="targetPoint"/>
                    </mxGeometry>
                </mxCell>
                <mxCell id="53" value="" style="endArrow=openThin;html=1;strokeColor=#000000;strokeWidth=1;fontFamily=Arial;fontSize=14;fontColor=#000000;endFill=0;" parent="1" edge="1">
                    <mxGeometry relative="1" as="geometry">
                        <mxPoint x="786" y="389" as="sourcePoint"/>
                        <mxPoint x="802" y="389" as="targetPoint"/>
                    </mxGeometry>
                </mxCell>
                <mxCell id="54" value="" style="endArrow=openThin;html=1;strokeColor=#000000;strokeWidth=1;fontFamily=Arial;fontSize=14;fontColor=#000000;endFill=0;exitX=0.5;exitY=1;exitDx=0;exitDy=0;entryX=0.461;entryY=-0.006;entryDx=0;entryDy=0;entryPerimeter=0;" parent="1" target="35" edge="1" source="24">
                    <mxGeometry relative="1" as="geometry">
                        <mxPoint x="970" y="391" as="sourcePoint"/>
                        <mxPoint x="970.5" y="391" as="targetPoint"/>
                    </mxGeometry>
                </mxCell>
                <mxCell id="55" value="" style="endArrow=openThin;html=1;strokeColor=#000000;strokeWidth=1;fontFamily=Arial;fontSize=14;fontColor=#000000;endFill=0;exitX=-0.001;exitY=0.306;exitDx=0;exitDy=0;exitPerimeter=0;" parent="1" edge="1" source="32">
                    <mxGeometry relative="1" as="geometry">
                        <mxPoint x="1116" y="392.03" as="sourcePoint"/>
                        <mxPoint x="789" y="571" as="targetPoint"/>
                    </mxGeometry>
                </mxCell>
            </root>
        </mxGraphModel>
    </diagram>
</mxfile>